PathFileType	4	(X/Y/Z)	c:/Users/goper/Files/vsCode/490R/osim_files/A05/A05_Fast_05.trc
DataRate	CameraRate	NumFrames	NumMarkers	Units                	OrigDataRate	OrigDataStartFrame	OrigNumFrames
250.00	250.00	8	36	mm	250.0	1765	2352
                Frame#	Time	LPSIS			LASIS			LTH1			LTH2			LTH3			LTH4			LLFE			LMFE			LSH1			LSH2			LSH3			LSH4			LLMAL			LMMAL			LCAL			LMTP5			LTOE			LMTP1			RPSIS			RASIS			RTH1			RTH2			RTH3			RTH4			RLFE			RMFE			RSH1			RSH2			RSH3			RSH4			RLMAL			RMMAL			RCAL			RMTP1			RTOE			RMTP5		
		X1	Y1	Z1	X2	Y2	Z2	X3	Y3	Z3	X4	Y4	Z4	X5	Y5	Z5	X6	Y6	Z6	X7	Y7	Z7	X8	Y8	Z8	X9	Y9	Z9	X10	Y10	Z10	X11	Y11	Z11	X12	Y12	Z12	X13	Y13	Z13	X14	Y14	Z14	X15	Y15	Z15	X16	Y16	Z16	X17	Y17	Z17	X18	Y18	Z18	X19	Y19	Z19	X20	Y20	Z20	X21	Y21	Z21	X22	Y22	Z22	X23	Y23	Z23	X24	Y24	Z24	X25	Y25	Z25	X26	Y26	Z26	X27	Y27	Z27	X28	Y28	Z28	X29	Y29	Z29	X30	Y30	Z30	X31	Y31	Z31	X32	Y32	Z32	X33	Y33	Z33	X34	Y34	Z34	X35	Y35	Z35	X36	Y36	Z36

1765	7.05600	0.00000	0.00000	0.00000	0.00000	0.00000	0.00000	0.00000	0.00000	0.00000	0.00000	0.00000	0.00000	-3415.37744	683.76031	536.03009	-3430.50537	643.77374	533.17603	-3484.40527	474.10529	510.96277	0.00000	0.00000	0.00000	-3469.77393	373.45776	523.09003	-3475.63208	329.46814	527.07916	-3527.84546	376.50803	508.97458	-3527.74463	332.16400	515.32062	0.00000	0.00000	0.00000	0.00000	0.00000	0.00000	-3362.21509	555.61597	154.61200	0.00000	0.00000	0.00000	-3118.04468	155.25870	260.87393	0.00000	0.00000	0.00000	-2993.83130	108.57455	252.25038	0.00000	0.00000	0.00000	0.00000	0.00000	0.00000	0.00000	0.00000	0.00000	-3366.96582	601.20471	147.27972	0.00000	0.00000	0.00000	0.00000	0.00000	0.00000	-3298.39917	494.24982	278.72507	0.00000	0.00000	0.00000	0.00000	0.00000	0.00000	-3179.77197	265.40094	150.52245	0.00000	0.00000	0.00000	0.00000	0.00000	0.00000	0.00000	0.00000	0.00000	-3202.14575	260.51083	158.37872	-3198.00537	57.85280	240.22275	-3225.33130	61.45749	185.83778	-3154.86060	49.30136	127.58317
1766	7.06000	-3367.74463	663.24347	522.58630	0.00000	0.00000	0.00000	0.00000	0.00000	0.00000	0.00000	0.00000	0.00000	-3418.34961	683.86096	536.84668	-3433.33496	643.82202	533.98120	-3486.84033	473.99850	511.61703	0.00000	0.00000	0.00000	-3471.68530	373.49139	523.48907	-3477.28467	329.44171	527.42499	-3529.73657	376.13120	509.61441	-3529.35913	331.80261	515.92285	0.00000	0.00000	0.00000	-3042.68140	147.81584	286.71414	0.00000	0.00000	0.00000	0.00000	0.00000	0.00000	-3120.32080	156.64668	260.45999	0.00000	0.00000	0.00000	0.00000	0.00000	0.00000	0.00000	0.00000	0.00000	0.00000	0.00000	0.00000	0.00000	0.00000	0.00000	-3371.94067	601.36920	146.92796	0.00000	0.00000	0.00000	0.00000	0.00000	0.00000	-3304.12793	494.03381	278.32773	0.00000	0.00000	0.00000	0.00000	0.00000	0.00000	-3182.56104	266.39316	150.06000	0.00000	0.00000	0.00000	0.00000	0.00000	0.00000	0.00000	0.00000	0.00000	-3204.38086	261.71390	157.86096	-3198.14697	57.85489	239.89317	-3225.38403	61.27309	185.82629	-3155.06128	49.48300	127.62001
1767	7.06400	-3370.73730	663.49957	523.15399	0.00000	0.00000	0.00000	0.00000	0.00000	0.00000	-3393.17261	626.84100	525.73145	-3421.26587	683.91864	537.59857	-3436.07104	643.83850	534.72498	-3489.23193	473.89273	512.30450	0.00000	0.00000	0.00000	-3473.46533	373.44495	523.91925	-3478.84741	329.40881	527.81726	-3531.57764	375.80344	510.24759	-3530.91162	331.45135	516.44281	0.00000	0.00000	0.00000	0.00000	0.00000	0.00000	-2997.09106	114.44674	252.31123	0.00000	0.00000	0.00000	-3122.85815	158.16539	260.03635	0.00000	0.00000	0.00000	0.00000	0.00000	0.00000	0.00000	0.00000	0.00000	0.00000	0.00000	0.00000	0.00000	0.00000	0.00000	-3377.10815	601.62152	146.50079	0.00000	0.00000	0.00000	0.00000	0.00000	0.00000	-3310.01025	493.75122	277.82059	0.00000	0.00000	0.00000	0.00000	0.00000	0.00000	-3184.34839	267.66296	150.05872	0.00000	0.00000	0.00000	0.00000	0.00000	0.00000	0.00000	0.00000	0.00000	-3207.03442	263.10938	157.30531	-3198.32349	57.91137	239.45967	-3225.41602	61.04293	185.78046	-3155.25830	49.64143	127.60204
1768	7.06800	-3373.70801	663.80463	523.70300	0.00000	0.00000	0.00000	0.00000	0.00000	0.00000	0.00000	0.00000	0.00000	-3424.23120	684.05975	538.39215	-3438.93823	643.92694	535.48157	-3491.60571	473.84024	512.90186	0.00000	0.00000	0.00000	-3475.28076	373.54172	524.31134	-3480.49414	329.46658	528.19385	-3533.46777	375.55951	510.83487	-3532.59546	331.22812	516.99652	0.00000	0.00000	0.00000	-2843.12646	247.45775	112.59987	0.00000	0.00000	0.00000	0.00000	0.00000	0.00000	-3125.46606	159.74838	259.50937	0.00000	0.00000	0.00000	0.00000	0.00000	0.00000	0.00000	0.00000	0.00000	0.00000	0.00000	0.00000	0.00000	0.00000	0.00000	-3382.46753	601.91742	146.02582	0.00000	0.00000	0.00000	-3154.60986	245.28218	145.20398	0.00000	0.00000	0.00000	0.00000	0.00000	0.00000	-2998.93994	117.85504	252.33339	0.00000	0.00000	0.00000	0.00000	0.00000	0.00000	0.00000	0.00000	0.00000	0.00000	0.00000	0.00000	-3209.81055	264.59363	156.59180	-3198.49512	58.00288	239.07390	-3225.52100	60.82687	185.69476	-3155.56226	49.91190	127.65796
1769	7.07200	-3376.70752	664.33173	524.46814	0.00000	0.00000	0.00000	0.00000	0.00000	0.00000	0.00000	0.00000	0.00000	-3427.22534	684.25189	539.13818	-3441.77466	644.04230	536.18524	-3494.00000	473.81003	513.53143	0.00000	0.00000	0.00000	-3477.09961	373.59735	524.73438	-3482.01538	329.44833	528.53351	-3535.43994	375.41064	511.43661	-3534.20947	331.01489	517.46631	0.00000	0.00000	0.00000	0.00000	0.00000	0.00000	-3322.38647	493.09445	276.61853	0.00000	0.00000	0.00000	-3128.38208	161.49660	258.96188	0.00000	0.00000	0.00000	0.00000	0.00000	0.00000	0.00000	0.00000	0.00000	0.00000	0.00000	0.00000	0.00000	0.00000	0.00000	-3388.06177	602.27734	145.43561	0.00000	0.00000	0.00000	0.00000	0.00000	0.00000	-2843.73633	244.94722	111.09801	-3068.85205	178.39038	149.51799	0.00000	0.00000	0.00000	0.00000	0.00000	0.00000	0.00000	0.00000	0.00000	0.00000	0.00000	0.00000	0.00000	0.00000	0.00000	-3190.63623	270.14981	148.81601	-3198.62817	58.00524	238.59256	-3225.64478	60.65444	185.64296	-3156.06445	50.27355	127.71938
1770	7.07600	-3379.69873	664.86816	525.22351	0.00000	0.00000	0.00000	0.00000	0.00000	0.00000	0.00000	0.00000	0.00000	-3430.16821	684.43005	539.86145	-3444.60059	644.19379	536.91412	-3496.31909	473.82117	514.13019	0.00000	0.00000	0.00000	-3478.91772	373.72394	525.12634	-3483.64502	329.52988	528.94885	-3537.16187	375.11096	511.96423	-3535.76880	330.77069	517.95880	0.00000	0.00000	0.00000	-3328.99414	492.80045	275.89813	0.00000	0.00000	0.00000	0.00000	0.00000	0.00000	-3131.49658	163.33307	258.37152	0.00000	0.00000	0.00000	0.00000	0.00000	0.00000	-3194.03003	271.38208	148.06099	0.00000	0.00000	0.00000	0.00000	0.00000	0.00000	-3393.93823	602.72430	144.80304	0.00000	0.00000	0.00000	-2844.24829	242.28786	109.50704	0.00000	0.00000	0.00000	-3071.79858	180.32285	149.16364	0.00000	0.00000	0.00000	0.00000	0.00000	0.00000	0.00000	0.00000	0.00000	0.00000	0.00000	0.00000	0.00000	0.00000	0.00000	0.00000	0.00000	0.00000	-3198.78418	58.04375	238.19289	-3225.80005	60.49020	185.57127	-3156.53198	50.64972	127.77396
1771	7.08000	-3382.66821	665.23279	525.78723	0.00000	0.00000	0.00000	0.00000	0.00000	0.00000	0.00000	0.00000	0.00000	-3433.05078	684.56848	540.59808	-3447.45190	644.33673	537.59656	-3498.63013	473.80243	514.66937	0.00000	0.00000	0.00000	-3480.62500	373.78210	525.49036	-3485.17627	329.58563	529.23016	-3539.12622	375.03662	512.54016	-3537.27905	330.57858	518.37048	0.00000	0.00000	0.00000	0.00000	0.00000	0.00000	-3335.90015	492.51175	275.09134	0.00000	0.00000	0.00000	-3134.83887	165.27357	257.74915	0.00000	0.00000	0.00000	0.00000	0.00000	0.00000	0.00000	0.00000	0.00000	0.00000	0.00000	0.00000	0.00000	0.00000	0.00000	-3399.96191	603.16455	144.07820	-3396.41821	557.18298	150.02982	0.00000	0.00000	0.00000	-3224.56104	295.50909	415.10028	0.00000	0.00000	0.00000	-3164.61011	249.39461	143.33368	0.00000	0.00000	0.00000	0.00000	0.00000	0.00000	0.00000	0.00000	0.00000	0.00000	0.00000	0.00000	0.00000	0.00000	0.00000	-3199.05029	58.03672	237.78441	-3225.98022	60.35163	185.48009	-3158.98047	52.31558	128.38496
1772	7.08400	0.00000	0.00000	0.00000	0.00000	0.00000	0.00000	0.00000	0.00000	0.00000	0.00000	0.00000	0.00000	-3435.83081	684.71210	541.19958	-3450.16797	644.46753	538.22772	-3500.81104	473.79736	515.21405	0.00000	0.00000	0.00000	-3482.39819	373.92023	525.89362	-3486.65381	329.65881	529.60388	-3540.80151	374.77719	512.98041	-3538.81274	330.39017	518.81287	0.00000	0.00000	0.00000	-3407.21729	628.33356	528.53595	0.00000	0.00000	0.00000	0.00000	0.00000	0.00000	-3138.45361	167.33803	257.07050	0.00000	0.00000	0.00000	-3343.26758	492.69894	273.88611	0.00000	0.00000	0.00000	0.00000	0.00000	0.00000	0.00000	0.00000	0.00000	-3406.21606	603.65204	143.27022	0.00000	0.00000	0.00000	-3228.20117	297.91516	415.47540	0.00000	0.00000	0.00000	0.00000	0.00000	0.00000	0.00000	0.00000	0.00000	0.00000	0.00000	0.00000	-3076.72168	196.89160	138.29071	0.00000	0.00000	0.00000	0.00000	0.00000	0.00000	-3170.34619	238.92242	152.34360	-3199.35254	58.11693	237.44582	-3226.23511	60.28201	185.43797	-3159.66138	52.85162	128.47505
